<svg width="68" height="68" viewBox="0 0 68 68" fill="none" xmlns="http://www.w3.org/2000/svg">
<path d="M0 33.8119C0 52.4857 15.1381 67.6238 33.8119 67.6238C52.4857 67.6238 67.6238 52.4857 67.6238 33.8119C67.6238 15.1381 52.4857 0 33.8119 0C15.1381 0 0 15.1381 0 33.8119Z" fill="#1E4A35"/>
<path d="M35.5593 21.3258C35.5402 21.3247 35.5217 21.323 35.5315 21.3415L35.5593 21.3258Z" fill="white"/>
<path d="M37.3196 16.9454C36.5649 17.7523 36.3994 18.4696 35.6059 18.8524C35.414 18.945 35.3305 18.5214 35.2806 18.3254C34.9216 16.908 35.011 15.7901 34.6142 15.4073C34.526 15.3223 34.1464 15.3395 34.0422 15.4252C32.4327 16.7471 33.9815 19.3076 31.6391 16.3643C31.4965 16.185 30.826 16.1264 30.8467 16.3361C30.9898 17.7857 33.3224 20.6905 35.2743 21.2641C35.4026 21.302 35.6889 21.2607 36.0026 20.9578C36.5975 20.3836 38.274 18.1495 37.781 16.9988C37.7146 16.8437 37.4444 16.8126 37.3201 16.9454H37.3196Z" fill="white"/>
<path d="M37.7794 53.0035C37.4531 53.023 37.1673 52.7896 37.0878 52.4839C36.8519 51.5763 36.1905 49.2072 35.4181 47.9186C34.4488 46.3029 34.4488 46.2179 34.4488 46.2179C34.4488 46.2179 30.5713 41.6256 29.2499 37.4586C27.9278 33.2916 26.0772 27.0555 29.2499 23.4552C31.0122 21.1309 32.5101 21.2159 33.3036 21.301C34.0967 21.3861 34.7133 23.0868 36.3881 21.9815C39.3746 23.638 35.0111 24.7863 32.8296 23.638C31.7548 23.0724 35.6065 26.5089 37.788 24.2122C38.1407 24.6616 38.1848 25.5519 37.5779 27.3814C36.6938 30.0454 34.9343 34.6095 35.0225 37.8414C35.1107 41.0726 36.5988 42.5239 37.3918 45.0753C38.1104 47.3875 39.3099 52.9115 37.7806 53.0035H37.7794Z" fill="white"/>
</svg>
