<svg width="172" height="25" viewBox="0 0 172 25" fill="none" xmlns="http://www.w3.org/2000/svg">
<path d="M100.403 23.1773V22.5937C100.403 21.5895 99.5889 20.7754 98.5842 20.7754H80.8536C79.849 20.7754 79.0346 21.5895 79.0346 22.5937V23.1773C79.0346 24.1815 79.849 24.9956 80.8536 24.9956H98.5842C99.5889 24.9956 100.403 24.1815 100.403 23.1773Z" fill="#1E4A35"/>
<path d="M12.3232 0.757926C13.2043 1.26499 13.6448 1.98022 13.6448 2.90449C13.6448 3.54322 13.4081 4.06629 12.9346 4.47283C12.4603 4.88026 11.8827 5.08398 11.2001 5.08398C10.3191 5.08398 9.68006 4.86425 9.28403 4.4239C9.70231 3.8519 9.91145 3.29057 9.91145 2.73992C9.91145 2.25599 9.8011 1.90371 9.58128 1.68309C9.36057 1.46337 9.01971 1.35306 8.55694 1.35306C7.91795 1.35306 7.45517 1.6226 7.16949 2.16258C6.88293 2.70256 6.70672 3.36797 6.64086 4.16059C6.575 4.95321 6.54207 6.07586 6.54207 7.52945H7.16949C7.61002 7.52945 8.29262 7.51254 9.21818 7.47963C10.1428 7.44671 10.6715 7.41914 10.8041 7.3969L10.7712 8.42081C10.7489 8.75084 10.6394 9.00971 10.441 9.19653C10.2425 9.38423 9.98888 9.47764 9.68095 9.47764H6.54207V19.8804C6.54207 21.5537 6.75121 22.9406 7.16949 24.0419C6.4424 24.6798 5.6272 25 4.72478 25C4.01994 25 3.43612 24.8016 2.97335 24.4058C2.51057 24.0099 2.27918 23.4699 2.27918 22.7876V9.47853H1.98193C1.10088 9.47853 0.439639 9.51144 0 9.57727L0.0329283 8.55336C0.0542873 8.22332 0.169982 7.97068 0.380012 7.79365C0.589152 7.61751 0.847239 7.52945 1.15605 7.52945H2.27918V6.86937C2.27918 2.28979 4.39372 0 8.62279 0C10.2087 0 11.4422 0.253532 12.3232 0.759705V0.757926Z" fill="#1E4A35"/>
<path d="M31.3542 22.5875C31.3542 23.2262 31.0783 23.7653 30.5283 24.2057C29.9774 24.646 29.2397 24.8666 28.315 24.8666C27.2577 24.8666 26.4318 24.5197 25.8374 23.8267C25.2429 23.1328 24.9011 22.0048 24.813 20.4418C24.1963 21.7851 23.3375 22.8579 22.2357 23.6621C21.1339 24.4663 19.8568 24.8675 18.4035 24.8675C17.1033 24.8675 16.0576 24.5268 15.2647 23.8436C14.4717 23.1613 14.0757 22.2041 14.0757 20.9702C14.0757 19.5611 14.615 18.4056 15.6945 17.5026C16.7731 16.5997 18.1392 15.9067 19.7919 15.4219C21.2229 15.0251 22.7982 14.8054 24.5167 14.7609V13.9354C24.5167 12.0646 24.296 10.6884 23.8563 9.80684C23.4158 8.92615 22.6558 8.48581 21.5762 8.48581C20.8714 8.48581 20.2983 8.68952 19.8586 9.09695C19.4181 9.50438 19.1983 10.1262 19.1983 10.9624C19.1983 12.1295 19.5952 12.9444 20.3881 13.4061C20.1452 13.649 19.8204 13.8358 19.4136 13.9674C19.006 14.0991 18.5709 14.1658 18.109 14.1658C17.0953 14.1658 16.297 13.8802 15.7132 13.3074C15.1294 12.7354 14.8375 12.0086 14.8375 11.1279C14.8375 9.82908 15.4649 8.82207 16.7206 8.10596C17.9764 7.39073 19.6833 7.03223 21.8414 7.03223C24.2862 7.03223 26.0759 7.59356 27.2106 8.71621C28.3444 9.83887 28.9122 11.667 28.9122 14.1987V19.9454C28.9122 21.1126 29.2753 21.6961 30.0024 21.6961C30.1563 21.6961 30.321 21.6579 30.4981 21.5805C30.6743 21.504 30.8167 21.3883 30.9279 21.2336C31.2136 21.6526 31.3578 22.1036 31.3578 22.5875H31.3542ZM22.3345 21.2994C22.9948 20.771 23.5457 20.0504 23.9862 19.1359C24.4268 18.2223 24.6466 17.226 24.6466 16.1469C22.9067 16.1469 21.6065 16.3898 20.7477 16.8737C20.1309 17.1824 19.6406 17.6005 19.2775 18.1289C18.9144 18.6573 18.7328 19.2631 18.7328 19.9454C18.7328 20.5397 18.8699 21.0467 19.1458 21.4648C19.4208 21.8838 19.8337 22.092 20.3846 22.092C21.0227 22.092 21.6732 21.8278 22.3336 21.2994H22.3345Z" fill="#1E4A35"/>
<path d="M45.3785 8.04021C46.1599 8.71185 46.5515 9.63079 46.5515 10.7979C46.5515 11.635 46.2978 12.3289 45.7914 12.8787C45.2842 13.4293 44.6461 13.7158 43.8754 13.7371C42.9943 13.7371 42.3437 13.5058 41.9263 13.0432C42.1684 12.6465 42.3339 12.2835 42.4221 11.9535C42.5102 11.6235 42.5538 11.2383 42.5538 10.7979C42.5538 10.2259 42.4327 9.79091 42.1907 9.4929C41.9477 9.19578 41.5846 9.04722 41.1005 9.04722C40.2853 9.04722 39.6472 9.69128 39.1844 10.9794C38.7216 12.2675 38.4902 14.189 38.4902 16.7421C38.4902 19.0986 38.5232 20.6883 38.589 21.5147C38.6549 22.3403 38.8533 23.1498 39.1835 23.9424C38.9405 24.1853 38.6104 24.3997 38.1921 24.5865C37.7729 24.7733 37.2888 24.8783 36.7388 24.9005C36.0562 24.9005 35.4715 24.6799 34.9874 24.2404C34.5023 23.8001 34.2603 23.2058 34.2603 22.4568V11.9873C34.2603 11.3708 34.1882 10.9251 34.0458 10.6494C33.9025 10.3745 33.6764 10.2366 33.3685 10.2366C32.9494 10.2366 32.6637 10.3691 32.5097 10.6334C32.2454 10.193 32.1128 9.74199 32.1128 9.2794C32.1128 8.61933 32.338 8.08558 32.79 7.67815C33.2413 7.27072 33.8749 7.06701 34.6901 7.06701C35.6593 7.06701 36.43 7.36413 37.0031 7.95837C37.5753 8.55261 37.9064 9.44487 37.9945 10.6334C38.743 8.23414 40.1856 7.0332 42.3224 7.0332C43.5781 7.0332 44.5962 7.36947 45.3785 8.04021Z" fill="#1E4A35"/>
<path d="M74.3369 24.0399C73.6098 24.6777 72.7946 24.998 71.8922 24.998C71.1651 24.998 70.5706 24.7996 70.1078 24.4037C69.6451 24.0079 69.4137 23.4679 69.4137 22.7856V14.3639C69.4137 12.6247 69.2811 11.3037 69.0168 10.4008C68.7524 9.49784 68.1793 9.04682 67.2983 9.04682C66.6815 9.04682 66.1137 9.32793 65.5967 9.88926C65.0787 10.4506 64.6551 11.3046 64.3249 12.4486C63.9947 13.5935 63.8176 14.9804 63.7963 16.6101L63.8292 19.8793C63.8292 21.6184 64.0277 23.0062 64.4237 24.0408C63.7411 24.6786 62.9481 24.9989 62.0448 24.9989C61.3622 24.9989 60.7998 24.8005 60.3601 24.4046C59.9196 24.0079 59.6989 23.4688 59.6989 22.7865L59.666 14.3648C59.666 12.5153 59.5058 11.1667 59.1872 10.3189C58.8677 9.47204 58.2563 9.04771 57.3539 9.04771C56.3847 9.04771 55.5971 9.70778 54.9919 11.0297C54.3859 12.3507 54.0833 14.2883 54.0833 16.8423C54.0833 19.2201 54.1162 20.8223 54.1821 21.6478C54.2479 22.4733 54.4464 23.2829 54.7766 24.0755C54.1598 24.692 53.3446 24.9997 52.3318 24.9997C51.627 24.9997 51.0432 24.7791 50.5804 24.3397C50.1176 23.9002 49.8862 23.3158 49.8862 22.589L49.8533 11.9878C49.8533 10.8207 49.5338 10.2371 48.8948 10.2371C48.7186 10.2371 48.5424 10.2753 48.3662 10.3527C48.19 10.4301 48.0574 10.5564 47.9702 10.7326C47.7058 10.3145 47.5732 9.86346 47.5732 9.37864C47.5732 8.69633 47.81 8.14034 48.2834 7.71067C48.7569 7.281 49.4012 7.06661 50.2164 7.06661C51.2078 7.06661 51.9892 7.40287 52.5623 8.07362C53.1346 8.74525 53.4656 9.74159 53.5538 11.0626C53.972 9.78607 54.611 8.79507 55.4698 8.09052C56.3286 7.38597 57.4304 7.03369 58.7734 7.03369C60.1163 7.03369 61.1353 7.35839 61.8953 8.00779C62.6553 8.65718 63.1893 9.63128 63.4972 10.931C63.9155 9.72024 64.5652 8.76749 65.4463 8.07451C66.3273 7.38063 67.4068 7.03458 68.6839 7.03458C72.0319 7.03458 73.7059 9.25854 73.7059 13.7056V19.8811C73.7059 21.5544 73.9151 22.9412 74.3334 24.0426L74.3369 24.0399Z" fill="#1E4A35"/>
<path d="M117.05 0.757926C117.931 1.26499 118.371 1.98022 118.371 2.90449C118.371 3.54322 118.135 4.06629 117.661 4.47283C117.187 4.88026 116.609 5.08398 115.927 5.08398C115.046 5.08398 114.407 4.86425 114.011 4.4239C114.429 3.8519 114.638 3.29057 114.638 2.73992C114.638 2.25599 114.528 1.90371 114.308 1.68309C114.087 1.46337 113.746 1.35306 113.284 1.35306C112.645 1.35306 112.182 1.6226 111.896 2.16258C111.609 2.70256 111.433 3.36797 111.367 4.16059C111.302 4.95321 111.269 6.07586 111.269 7.52945H111.896C112.337 7.52945 113.019 7.51254 113.945 7.47963C114.869 7.44671 115.398 7.41914 115.531 7.3969L115.498 8.42081C115.475 8.75084 115.366 9.00971 115.168 9.19653C114.969 9.38423 114.715 9.47764 114.408 9.47764H111.269V19.8804C111.269 21.5537 111.478 22.9406 111.896 24.0419C111.169 24.6798 110.354 25 109.451 25C108.746 25 108.163 24.8016 107.7 24.4058C107.237 24.0099 107.006 23.4699 107.006 22.7876V9.47853H106.708C105.827 9.47853 105.166 9.51144 104.727 9.57727L104.759 8.55336C104.781 8.22332 104.897 7.97068 105.107 7.79365C105.316 7.61751 105.574 7.52945 105.883 7.52945H107.006V6.86937C107.006 2.28979 109.12 0 113.349 0C114.935 0 116.169 0.253532 117.05 0.759705V0.757926Z" fill="#1E4A35"/>
<path d="M133.603 20.6723C133.603 20.9588 133.525 21.2888 133.371 21.6633C132.953 22.7201 132.193 23.5403 131.091 24.1239C129.99 24.7066 128.657 24.9993 127.094 24.9993C124.539 24.9993 122.512 24.212 121.014 22.6383C119.517 21.0646 118.768 18.846 118.768 15.9833C118.768 13.1206 119.495 10.9963 120.948 9.41106C122.402 7.82582 124.473 7.0332 127.159 7.0332C129.12 7.0332 130.727 7.46821 131.983 8.33733C133.239 9.20735 133.866 10.4341 133.866 12.0193C133.866 13.6046 133.217 14.8713 131.917 15.7511C130.617 16.6318 128.878 17.0722 126.697 17.0722C125.287 17.0722 124.197 17.0286 123.426 16.9405C123.58 18.8558 124.07 20.232 124.896 21.0691C125.722 21.9062 126.862 22.3243 128.316 22.3243C129.483 22.3243 130.474 22.093 131.289 21.6304C132.103 21.1678 132.699 20.5522 133.073 19.781C133.426 19.9349 133.602 20.2329 133.602 20.6723H133.603ZM124.319 10.3514C123.68 11.5736 123.36 13.263 123.36 15.4211V15.454L124.483 15.4869C125.849 15.4869 126.989 15.2014 127.903 14.6285C128.817 14.0565 129.274 12.9552 129.274 11.3263C129.274 9.45554 128.514 8.51881 126.994 8.51881C125.849 8.51881 124.956 9.12995 124.318 10.3514H124.319Z" fill="#1E4A35"/>
<path d="M150.948 20.6723C150.948 20.9588 150.871 21.2888 150.717 21.6633C150.298 22.7201 149.538 23.5403 148.437 24.1239C147.335 24.7066 146.002 24.9993 144.439 24.9993C141.884 24.9993 139.857 24.212 138.36 22.6383C136.862 21.0646 136.113 18.846 136.113 15.9833C136.113 13.1206 136.84 10.9963 138.294 9.41106C139.747 7.82582 141.818 7.0332 144.505 7.0332C146.465 7.0332 148.073 7.46821 149.328 8.33733C150.584 9.20735 151.211 10.4341 151.211 12.0193C151.211 13.6046 150.562 14.8713 149.262 15.7511C147.962 16.6318 146.223 17.0722 144.042 17.0722C142.632 17.0722 141.542 17.0286 140.771 16.9405C140.925 18.8558 141.416 20.232 142.242 21.0691C143.067 21.9062 144.207 22.3243 145.661 22.3243C146.828 22.3243 147.819 22.093 148.634 21.6304C149.448 21.1678 150.044 20.5522 150.418 19.781C150.771 19.9349 150.947 20.2329 150.947 20.6723H150.948ZM141.664 10.3514C141.025 11.5736 140.705 13.263 140.705 15.4211V15.454L141.829 15.4869C143.194 15.4869 144.334 15.2014 145.248 14.6285C146.162 14.0565 146.619 12.9552 146.619 11.3263C146.619 9.45554 145.859 8.51881 144.339 8.51881C143.194 8.51881 142.301 9.12995 141.663 10.3514H141.664Z" fill="#1E4A35"/>
<path d="M171.168 22.6201C171.168 23.2589 170.899 23.7873 170.358 24.2054C169.818 24.6235 169.152 24.8325 168.36 24.8325C167.324 24.8325 166.52 24.458 165.948 23.7099C165.375 22.9617 165.023 21.8933 164.89 20.5065C163.899 23.5008 162.049 24.998 159.34 24.998C157.313 24.998 155.826 24.2383 154.879 22.7189C153.932 21.1995 153.459 19.1748 153.459 16.6421C153.459 13.582 154.07 11.2148 155.292 9.54147C156.515 7.86816 158.26 7.03195 160.529 7.03195C161.542 7.03195 162.396 7.20809 163.089 7.56036C163.783 7.91264 164.284 8.41881 164.592 9.07977V7.29615C164.592 4.89694 164.361 2.89271 163.898 1.28523C164.603 0.647399 165.418 0.327148 166.343 0.327148C167.048 0.327148 167.632 0.530863 168.094 0.938293C168.557 1.34572 168.788 1.89104 168.788 2.57335L168.756 19.9452C168.756 21.0901 169.13 21.6621 169.879 21.6621C170.297 21.6621 170.584 21.5304 170.738 21.2653C171.023 21.7056 171.167 22.1567 171.167 22.6192L171.168 22.6201ZM163.503 20.0937C164.163 18.3875 164.494 16.3343 164.494 13.9342C164.494 12.4815 164.296 11.3251 163.9 10.4666C163.504 9.60818 162.732 9.17852 161.587 9.17852C160.353 9.17852 159.456 9.80122 158.894 11.0449C158.332 12.2894 158.051 14.1219 158.051 16.5434C158.051 18.6357 158.238 20.1765 158.613 21.1666C158.987 22.1576 159.648 22.6531 160.595 22.6531C161.872 22.6531 162.842 21.7999 163.502 20.0937H163.503Z" fill="#1E4A35"/>
<path d="M85.7822 3.32526C86.5325 3.30035 86.957 3.27989 87.0558 3.26387L87.0309 4.02981C87.014 4.27711 86.9321 4.47104 86.7835 4.61071C86.6348 4.75126 86.4453 4.82065 86.2148 4.82065H84.0139V12.6561C84.0139 13.5297 84.393 13.9665 85.1513 13.9665C85.3488 13.9665 85.5509 13.938 85.7573 13.8802C85.9629 13.8224 86.0911 13.7361 86.1409 13.6204C86.3554 13.9006 86.4622 14.2387 86.4622 14.6337C86.4622 15.1443 86.2228 15.557 85.7449 15.8693C85.2661 16.1824 84.6324 16.339 83.8404 16.339C82.8837 16.339 82.1423 16.0348 81.6146 15.4245C81.0868 14.8151 80.8234 13.9825 80.8234 12.9283V4.82065H80.4772C79.8008 4.82065 79.306 4.84556 78.9937 4.89448L79.0186 4.12855C79.0346 3.88125 79.1209 3.69177 79.2784 3.56011C79.4351 3.42845 79.6282 3.36262 79.8596 3.36262H80.8243V1.70621C80.8243 1.19559 80.9969 0.791719 81.3431 0.494597C81.6893 0.198365 82.1343 0.0498047 82.6781 0.0498047C83.0741 0.0498047 83.4283 0.12364 83.7416 0.272201C84.0548 0.420762 84.3022 0.585335 84.4838 0.76681C84.2693 1.60747 84.1287 2.47214 84.0637 3.36262H84.1376C84.4838 3.36262 85.032 3.35016 85.7822 3.32526Z" fill="#1E4A35"/>
<path d="M90.0477 14.6711C88.9762 13.4932 88.4404 11.8493 88.4404 9.74009C88.4404 7.63088 88.9717 5.95846 90.0352 4.77176C91.0987 3.58505 92.5858 2.9917 94.4984 2.9917C96.4109 2.9917 97.874 3.58505 98.9375 4.77176C100.001 5.95846 100.532 7.61398 100.532 9.74009C100.532 11.8662 100.001 13.4932 98.9375 14.6711C97.874 15.8498 96.394 16.4387 94.4984 16.4387C92.6028 16.4387 91.1183 15.8498 90.0468 14.6711H90.0477ZM97.0953 9.74009C97.0953 5.98248 96.2293 4.10457 94.4984 4.10457C93.6084 4.10457 92.949 4.57427 92.52 5.51367C92.091 6.45307 91.8774 7.86217 91.8774 9.74009C91.8774 11.618 92.0919 12.9986 92.52 13.93C92.949 14.8614 93.6084 15.3267 94.4984 15.3267C96.2293 15.3267 97.0953 13.4648 97.0953 9.74009Z" fill="#1E4A35"/>
</svg>
